<svg width="99" height="80" viewBox="0 0 99 80" fill="none" xmlns="http://www.w3.org/2000/svg">
<path fill-rule="evenodd" clip-rule="evenodd" d="M31.4161 50.0541C31.4161 50.8287 32.0731 51.4553 32.8471 51.4742C33.6242 51.4553 34.2827 50.8287 34.2819 50.0541L34.2888 24.744H42.7324V52.6428C42.7324 54.0101 41.6234 55.1259 40.2376 55.1259H25.4674C24.0892 55.1259 22.9672 54.0108 22.9672 52.6428V24.744H31.4177L31.4161 50.0541ZM48.3508 24.744H61.1385H73.9316C74.2933 24.7446 74.6514 24.8156 74.9853 24.9528C75.3192 25.09 75.6225 25.2908 75.8778 25.5438C76.133 25.7968 76.3353 26.0969 76.473 26.427C76.6107 26.7572 76.6812 27.1109 76.6804 27.4679V55.1259H68.2207V29.7562C68.2146 28.9786 67.5691 28.3625 66.7882 28.3625C65.9997 28.3625 65.368 28.9635 65.3557 29.7343V55.1267H56.9336V29.7351C56.9152 28.9643 56.2819 28.3633 55.4926 28.3633C55.306 28.362 55.121 28.397 54.9481 28.4664C54.7753 28.5358 54.6179 28.6381 54.4852 28.7676C54.3524 28.897 54.2468 29.051 54.1744 29.2208C54.102 29.3906 54.0642 29.5728 54.0632 29.757V55.1259H45.6043V27.4679C45.6032 27.111 45.6734 26.7573 45.8109 26.4272C45.9483 26.0971 46.1504 25.7969 46.4055 25.5439C46.6605 25.291 46.9636 25.0901 47.2974 24.9528C47.6312 24.8156 47.9892 24.7446 48.3508 24.744ZM8.79358 47.4917H17.3305C17.6948 47.492 18.0555 47.4213 18.3921 47.2837C18.7286 47.146 19.0343 46.9441 19.2916 46.6896C19.5489 46.435 19.7528 46.1328 19.8915 45.8003C20.0302 45.4678 20.101 45.1116 20.0999 44.752V27.48C20.0999 25.9678 18.9091 24.744 17.384 24.744H0.346924V55.1259H8.79358V47.4917ZM11.5566 29.2606C11.6271 29.435 11.662 29.6214 11.6594 29.809V42.3021C11.6662 43.1454 10.9741 43.7298 10.2299 43.7298H8.79358V28.3625H10.2299C10.4201 28.3646 10.6079 28.4037 10.7828 28.4776C10.9576 28.5514 11.1159 28.6586 11.2487 28.793C11.3815 28.9274 11.4861 29.0863 11.5566 29.2606ZM89.4871 47.6427V55.256H98.0869V27.6518C98.0879 27.2954 98.0162 26.9422 97.876 26.6126C97.7357 26.2829 97.5297 25.9833 97.2696 25.7307C97.0094 25.4782 96.7004 25.2778 96.3601 25.141C96.0199 25.0041 95.655 24.9335 95.2865 24.9332H80.762C79.2181 24.9332 77.964 26.1448 77.964 27.6518V55.256H86.5606V47.6427H89.4871ZM89.4871 29.9251V43.888H86.5606V29.947C86.5665 29.5767 86.7229 29.2235 86.996 28.9639C87.269 28.7043 87.6367 28.5591 88.0196 28.5598C88.8219 28.5598 89.4661 29.1535 89.4871 29.9251Z" fill="#9D9FA2"/>
</svg>
