<svg width="114" height="80" viewBox="0 0 114 80" fill="none" xmlns="http://www.w3.org/2000/svg">
<path fill-rule="evenodd" clip-rule="evenodd" d="M97.388 22.039C96.6216 21.2721 95.5527 20.8889 94.5669 20.8889H19.1586C18.1859 20.8889 17.1176 21.3133 16.3781 22.039L1.24396 37.2394C-0.316981 38.787 -0.28948 41.3073 1.27146 42.8543L16.4194 57.9596C17.1451 58.6859 18.1859 59.1098 19.1586 59.1098H94.5944C95.5527 59.1373 96.621 58.7541 97.388 57.9871L112.535 42.8274C114.056 41.3073 114.056 38.7601 112.535 37.24L97.388 22.039ZM96.3191 55.8226C95.6346 56.5076 94.7307 56.837 93.8262 56.837V56.8376H19.665C18.8155 56.8089 17.884 56.4532 17.227 55.7957L3.87383 42.4574C2.51854 41.1016 2.49104 38.897 3.84693 37.5413L17.2001 24.1755C17.8571 23.5323 18.7886 23.1623 19.6656 23.1623H93.8262C94.7032 23.1898 95.6346 23.5317 96.3191 24.203L109.672 37.5688C110.324 38.2211 110.689 39.1051 110.689 40.0268C110.689 40.9486 110.324 41.8326 109.672 42.4849L96.3191 55.8226ZM34.7678 44.9489C36.3915 47.9371 34.4265 51.2829 30.9063 51.2829V51.2823H20.304C19.731 51.2541 19.4582 50.965 19.4308 50.4007V47.5921C19.4318 47.4636 19.4581 47.3365 19.5082 47.2182C19.5582 47.1 19.631 46.993 19.7224 46.9033C19.8138 46.8137 19.9219 46.7433 20.0404 46.6962C20.159 46.649 20.2856 46.6261 20.413 46.6287H27.1127C27.6172 46.6287 27.7542 46.2291 27.563 45.94C26.8353 45.0165 25.8445 43.8999 24.771 42.69C22.5637 40.2023 20.0065 37.3202 18.666 34.9115C17.5748 32.9564 18.4748 28.7157 21.9819 28.7157H32.1476C32.6801 28.7157 33.0756 29.1701 33.103 29.6797V32.475C33.103 33.067 32.8576 33.3146 32.2298 33.3423H26.2943C25.6391 33.3423 25.5569 33.8381 25.7892 34.0857C26.7333 35.2288 27.8343 36.4451 28.9509 37.6784C31.2234 40.1887 33.56 42.7699 34.7678 44.9489ZM42.614 41.8928V50.3466C42.614 50.8562 42.1358 51.2829 41.7141 51.2829H37.634C37.2105 51.2829 36.7602 50.8562 36.7328 50.3742L36.706 29.6803C36.706 29.1436 37.0604 28.7169 37.7156 28.6893H41.5908C42.1638 28.6893 42.614 29.143 42.614 29.6803V36.7295H47.226V29.6803C47.226 29.2536 47.5673 28.7169 48.263 28.6893H52.1525C52.7934 28.6893 53.1347 29.143 53.1347 29.6803L53.1621 50.3466C53.1621 50.9109 52.7118 51.2829 52.2067 51.2829H48.1266C47.7579 51.2829 47.1986 50.8286 47.1986 50.3466V41.8928H42.614ZM88.0799 51.2829H75.3214C74.8437 51.2553 74.3666 50.7456 74.3392 50.3466V29.6803C74.3392 29.226 74.8437 28.7434 75.3488 28.7163H88.0525C88.6666 28.7163 88.9799 29.0607 88.9799 29.6527V32.4756C89.0073 32.9853 88.5576 33.3429 88.1341 33.3429H80.479V37.2939H85.5145C86.019 37.3486 86.4419 37.7482 86.4145 38.175V41.0388C86.4419 41.4661 86.0744 41.9475 85.5687 41.9198H80.479V46.6011H88.1073C88.6386 46.6011 89.0347 47.0008 89.0347 47.5651V50.3466C89.0347 51.0347 88.6386 51.2553 88.0799 51.2829ZM95.4479 51.2553H91.6823C91.2314 51.2553 90.7811 50.9109 90.7543 50.3742V29.6527C90.7543 29.0607 91.0944 28.7434 91.7091 28.7163H95.3931C95.9256 28.7163 96.2943 29.143 96.3217 29.6527V50.3742C96.3217 50.9386 95.953 51.2553 95.4479 51.2553ZM55.4952 31.9245C55.2498 37.2958 55.2498 42.6758 55.4952 48.0471C55.4952 49.4655 57.0504 51.3106 58.7015 51.3106H68.7177C70.4236 51.3106 71.8429 49.6031 71.8429 48.0471C72.1157 42.5533 72.1157 37.1839 71.8429 31.8968C71.8018 30.5061 70.1502 28.7163 68.7177 28.7163H58.7289C56.9831 28.7716 55.55 30.6167 55.4952 31.9245ZM65.2517 46.8499C64.1736 46.9046 63.136 46.9046 62.1264 46.8499C61.7583 46.8217 61.3902 46.4779 61.3628 45.7759C61.1442 41.9204 61.0489 38.0656 61.3628 34.1969C61.4176 33.522 61.7041 33.1776 62.1264 33.1223C63.1366 33.0123 64.201 33.0123 65.2517 33.0946C65.593 33.0946 65.8658 33.549 65.8926 34.1963C66.1517 38.065 66.1517 41.8928 65.8926 45.7753C65.8658 46.3402 65.702 46.8223 65.2517 46.8499Z" fill="#9D9FA2"/>
</svg>
