<svg width="121" height="80" viewBox="0 0 121 80" fill="none" xmlns="http://www.w3.org/2000/svg">
<path d="M82.0146 32.2637H86.7738V33.1861C89.6379 32.0157 92.4205 31.4552 94.6754 33.9947C95.9598 33.4511 97.1288 32.7411 98.3962 32.4455C102.085 31.5707 104.652 33.8044 104.192 37.5704C103.732 41.3364 103.004 45.0871 102.397 48.8615H97.5733C97.8363 47.1798 98.0823 45.5491 98.364 43.9167C98.6592 42.1042 98.9731 40.29 99.27 38.4809C99.2676 38.4528 99.2729 38.4246 99.2853 38.3994C99.4669 37.0302 99.0054 35.9923 98.0841 35.729C97.0796 35.4488 95.8291 36.0093 95.3846 37.2443C94.9401 38.4792 94.7738 39.7923 94.5362 41.085C94.1239 43.509 93.7626 45.9636 93.3333 48.3893C93.2915 48.5095 93.2222 48.6182 93.1308 48.7067C93.0395 48.7952 92.9287 48.8611 92.8073 48.8989C91.3906 48.9482 89.9585 48.9142 88.4434 48.9142C88.7403 47.0354 89.0372 45.206 89.3325 43.3765C89.6124 41.6133 89.9263 39.8653 90.1808 38.1106C90.3284 37.1542 89.9009 36.2149 89.1764 35.853C88.4519 35.4912 87.5136 35.7205 86.7891 36.4289C85.8678 37.336 85.8186 38.5387 85.6201 39.6921C85.1111 42.7497 84.6326 45.8073 84.1219 48.8904H79.3151C80.2212 43.3238 81.1102 37.8354 82.0146 32.2637ZM38.6181 47.1968C38.1091 50.3615 37.6136 53.3783 37.1029 56.4444H32.2792C33.5958 48.3672 34.8972 40.341 36.2138 32.2807H41.0376C40.9884 32.6918 40.9222 33.0706 40.8899 33.4001C41.8774 33.0213 42.8327 32.4948 43.8524 32.2807C47.3103 31.5384 50.1743 33.3509 51.1482 36.7635C52.5463 41.6574 49.0867 47.5094 44.1001 48.622C42.0912 49.0433 40.2808 48.6305 38.6181 47.1968ZM46.2888 40.076C46.3058 38.2074 45.5983 36.9776 44.4225 36.5325C43.2467 36.0875 41.8876 36.5818 40.8832 37.8014C40.4152 38.3562 40.0645 39.0002 39.8522 39.6945C39.6399 40.3888 39.5704 41.1189 39.648 41.8409C39.7633 43.0605 40.274 44.0814 41.5143 44.5095C42.702 44.9223 43.72 44.4772 44.5938 43.6704C45.6076 42.741 46.2163 41.4502 46.2888 40.076ZM0.125 44.7898C1.22786 43.8674 2.29847 42.9773 3.36909 42.0719C3.84587 42.6172 4.25816 43.176 4.7519 43.6381C5.9396 44.7762 7.33598 44.7915 8.82399 44.2819C10.256 43.7876 11.1773 42.8312 11.4403 41.2973C11.61 40.2594 11.3097 39.3863 10.4036 38.8087C9.76226 38.3977 9.07001 38.0664 8.39472 37.7046C7.98412 37.4906 7.55655 37.2918 7.14425 37.0948C1.34323 34.258 2.29847 27.8981 6.48084 24.9611C9.26343 23.0161 12.1444 23.2624 15.0424 24.6486C15.6668 24.9458 16.2437 25.3569 16.9088 25.7527C15.9705 26.9231 15.0984 28.0102 14.2416 29.0651C13.4679 28.7254 12.7434 28.3245 11.9697 28.0935C10.1423 27.5329 8.49652 28.2905 7.65666 30.0062C7.09675 31.1596 7.34277 32.1975 8.44562 32.8413C9.54848 33.4851 10.6853 33.9777 11.7881 34.5705C13.8462 35.6764 15.3512 37.2409 15.6736 39.6666C16.1826 43.3918 14.3162 46.621 10.8668 48.16C6.77607 49.9504 2.59709 48.6798 0.125 44.7898ZM19.3554 32.2637H24.1961C23.6192 35.7902 23.0763 39.2861 22.4994 42.7633C22.2686 44.1647 22.6691 44.7083 24.0638 44.8238C25.808 44.9715 26.6088 44.3142 26.8786 42.6155C27.4215 39.1858 27.9984 35.7579 28.5753 32.2637H33.399C33.0698 34.3565 32.7407 36.417 32.3946 38.4945C32.1638 39.9282 31.9161 41.3619 31.6701 42.7955C31.1271 46.0094 28.9859 48.1702 25.7927 48.6968C23.9806 48.994 22.1872 49.0093 20.4413 48.357C18.317 47.5501 17.1989 45.5559 17.5773 43.2967C18.1694 39.6649 18.7463 36.0059 19.3554 32.2637ZM78.8876 41.2803H68.5377C68.407 42.9943 69.2299 44.7083 70.4651 45.104C72.5232 45.7835 73.5922 44.3957 74.5966 42.9111C75.7334 43.3408 76.8532 43.7604 77.9713 44.18C76.5885 47.1153 72.4571 50.0319 68.3409 48.6645C65.4429 47.7081 64.0601 45.4506 63.7801 42.5153C63.339 37.9832 66.7036 33.3849 71.0997 32.3962C74.919 31.5469 78.2785 33.7552 78.8536 37.6621C79.0182 38.807 78.8876 40.0267 78.8876 41.2803ZM68.9754 38.3127H74.936C74.4422 36.4442 73.47 35.4606 72.2212 35.4454C70.8537 35.4284 69.5201 36.5988 68.9754 38.3127ZM116.178 42.9111C117.313 43.3408 118.416 43.7604 119.52 44.1647C117.56 48.1855 111.798 50.725 107.896 47.5756C105.656 45.7631 104.983 43.2899 105.427 40.555C106.036 36.6803 108.176 33.8792 111.946 32.5933C116.276 31.1103 120.26 33.8622 120.54 38.4452C120.606 39.3676 120.557 40.29 120.557 41.2803H110.102C109.922 42.8958 110.794 44.5927 112.012 45.104C113.329 45.6799 114.466 45.104 116.178 42.9111ZM116.408 38.362C116.325 36.8332 115.124 35.4742 113.823 35.4284C112.408 35.3791 110.745 36.879 110.599 38.362H116.408ZM64.3994 32.2467C63.9719 33.6974 63.5765 35.0326 63.1642 36.434C62.9874 36.4101 62.8118 36.3772 62.6383 36.3355C60.3494 35.6254 58.3744 36.7958 57.9452 39.1858C57.4192 42.1042 56.9747 45.0208 56.4962 47.9391C56.447 48.2347 56.3808 48.532 56.3265 48.8615H51.5249C52.4309 43.3068 53.32 37.8014 54.2243 32.2637H58.9988C58.9836 32.6425 58.9496 33.0061 58.9174 33.4341C60.5802 32.1805 62.4075 32.0157 64.3994 32.2467Z" fill="#9D9FA2"/>
</svg>
