<svg width="18" height="14" viewBox="0 0 18 14" fill="none" xmlns="http://www.w3.org/2000/svg">
<g clip-path="url(#clip0_201_658)">
<path fill-rule="evenodd" clip-rule="evenodd" d="M-0.00415039 0H25.6458V1.07734H-0.00415039V0ZM-0.00415039 2.15469H25.6458V3.23203H-0.00415039V2.15469ZM-0.00415039 4.30664H25.6458V5.38672H-0.00415039V4.30664ZM-0.00415039 6.46133H25.6458V7.53867H-0.00415039V6.46133ZM-0.00415039 8.61602H25.6458V9.69336H-0.00415039V8.61602ZM-0.00415039 10.768H25.6458V11.8453H-0.00415039V10.768ZM-0.00415039 12.9227H25.6458V14H-0.00415039V12.9227Z" fill="#BD3D44"/>
<path fill-rule="evenodd" clip-rule="evenodd" d="M-0.00415039 1.07739H25.6458V2.15474H-0.00415039V1.07739ZM-0.00415039 3.23208H25.6458V4.30669H-0.00415039V3.23208ZM-0.00415039 5.38403H25.6458V6.46138H-0.00415039V5.38403ZM-0.00415039 7.53872H25.6458V8.61606H-0.00415039V7.53872ZM-0.00415039 9.69341H25.6458V10.7708H-0.00415039V9.69341ZM-0.00415039 11.8454H25.6458V12.9227H-0.00415039V11.8454Z" fill="white"/>
<path fill-rule="evenodd" clip-rule="evenodd" d="M-0.00341797 0H10.2561V7.53867H-0.00341797V0Z" fill="#192F5D"/>
<path fill-rule="evenodd" clip-rule="evenodd" d="M0.852539 0.322754L0.947461 0.620801H1.24805L1.00547 0.804004L1.09775 1.10479L0.852539 0.918848L0.609961 1.10205L0.702246 0.804004L0.457031 0.620801H0.762891L0.852539 0.322754ZM2.56377 0.322754L2.65605 0.620801H2.95928L2.71406 0.804004L2.80635 1.10479L2.56377 0.918848L2.31855 1.10205L2.41084 0.804004L2.16826 0.620801H2.46885L2.56377 0.322754ZM4.27236 0.322754L4.36729 0.620801H4.66523L4.42266 0.804004L4.51494 1.10479L4.26973 0.918848L4.02715 1.10205L4.11943 0.804004L3.87422 0.620801H4.17744L4.27236 0.322754ZM5.98359 0.322754L6.07588 0.620801H6.3791L6.13389 0.804004L6.22881 1.10479L5.98359 0.918848L5.73838 1.10205L5.8333 0.804004L5.58809 0.620801H5.88867L5.98359 0.322754ZM7.69219 0.322754L7.78711 0.620801H8.0877L7.84512 0.804004L7.9374 1.10479L7.69219 0.918848L7.44961 1.10205L7.54189 0.804004L7.29932 0.620801H7.5999L7.69219 0.322754ZM9.40342 0.322754L9.4957 0.620801H9.79893L9.55371 0.804004L9.64863 1.10479L9.40342 0.918848L9.1582 1.10205L9.25313 0.804004L9.00791 0.620801H9.31113L9.40342 0.322754ZM1.70947 1.07744L1.80176 1.37549H2.10498L1.85977 1.55869L1.94941 1.85674L1.71211 1.67354L1.46689 1.85674L1.55391 1.55869L1.3166 1.37549H1.61719L1.70947 1.07744ZM3.41807 1.07744L3.51299 1.37549H3.81357L3.56836 1.55869L3.66328 1.85674L3.41807 1.67354L3.17285 1.85674L3.26777 1.55869L3.02256 1.37549H3.32578L3.41807 1.07744ZM5.1293 1.07744L5.22158 1.37549H5.52481L5.27959 1.55869L5.37188 1.85674L5.1293 1.67354L4.88408 1.85674L4.97637 1.55869L4.73379 1.37549H5.03438L5.1293 1.07744ZM6.83789 1.07744L6.93281 1.37549H7.2334L6.98818 1.55869L7.08311 1.85674L6.83789 1.67354L6.59531 1.85674L6.6876 1.55869L6.44238 1.37549H6.74824L6.83789 1.07744ZM8.54912 1.07744L8.64141 1.37549H8.94463L8.69941 1.55869L8.7917 1.85674L8.54912 1.67354L8.30391 1.85674L8.39619 1.55869L8.15361 1.37549H8.4542L8.54912 1.07744ZM0.852539 1.82939L0.947461 2.13291H1.24805L1.00547 2.31611L1.09775 2.61416L0.852539 2.42822L0.609961 2.61416L0.702246 2.31338L0.457031 2.13018H0.762891L0.852539 1.82939ZM2.56377 1.82939L2.65605 2.13018H2.95928L2.71406 2.31338L2.80635 2.61143L2.56377 2.42549L2.31855 2.61143L2.41084 2.31064L2.16826 2.12744H2.46885L2.56377 1.82939ZM4.27236 1.82939L4.36729 2.13018H4.66523L4.42266 2.31338L4.51494 2.61143L4.26973 2.42549L4.02715 2.61143L4.11943 2.31064L3.87422 2.12744H4.17744L4.27236 1.82939ZM5.98359 1.82939L6.07588 2.13018H6.3791L6.13389 2.31338L6.22881 2.61143L5.98359 2.42549L5.73838 2.61143L5.8333 2.31064L5.58809 2.12744H5.88867L5.98359 1.82939ZM7.69219 1.82939L7.78711 2.13018H8.0877L7.84512 2.31338L7.9374 2.61143L7.69219 2.42549L7.44961 2.61143L7.54189 2.31064L7.29932 2.12744H7.5999L7.69219 1.82939ZM9.40342 1.82939L9.4957 2.13018H9.79893L9.55371 2.31338L9.64863 2.61143L9.40342 2.42549L9.1582 2.61143L9.25313 2.31064L9.00791 2.12744H9.31113L9.40342 1.82939ZM1.70947 2.58408L1.80176 2.88213H2.10498L1.85977 3.06533L1.95205 3.36611L1.70947 3.18018L1.46426 3.36338L1.55654 3.06533L1.31396 2.88213H1.61455L1.70947 2.58408ZM3.41807 2.58408L3.51299 2.88213H3.81357L3.56836 3.06533L3.66328 3.36611L3.41807 3.18018L3.17285 3.36338L3.26777 3.06533L3.02256 2.88213H3.32578L3.41807 2.58408ZM5.1293 2.58408L5.22158 2.88213H5.52481L5.27959 3.06533L5.37188 3.36611L5.1293 3.18018L4.88408 3.36338L4.97637 3.06533L4.73379 2.88213H5.03438L5.1293 2.58408ZM6.83789 2.58408L6.93281 2.88213H7.2334L6.99082 3.06533L7.08311 3.36611L6.83789 3.18018L6.59531 3.36338L6.6876 3.06533L6.44238 2.88213H6.74824L6.83789 2.58408ZM8.54912 2.58408L8.64141 2.88213H8.94463L8.69941 3.06533L8.7917 3.36611L8.54912 3.18018L8.30391 3.36338L8.39619 3.06533L8.15361 2.88213H8.4542L8.54912 2.58408ZM0.852539 3.33877L0.947461 3.63682H1.24805L1.00547 3.82002L1.09775 4.1208L0.852539 3.93486L0.609961 4.11807L0.702246 3.82002L0.457031 3.63682H0.762891L0.852539 3.33877ZM2.56377 3.33877L2.65605 3.63682H2.95928L2.71406 3.82002L2.80635 4.11807L2.56377 3.93486L2.31855 4.11807L2.41084 3.82002L2.16826 3.63682H2.46885L2.56377 3.33877ZM4.27236 3.33877L4.36729 3.63682H4.66523L4.42266 3.82002L4.51494 4.1208L4.26973 3.93486L4.02715 4.11807L4.11943 3.82002L3.87422 3.63682H4.17744L4.27236 3.33877ZM5.98359 3.33877L6.07588 3.63682H6.3791L6.13389 3.82002L6.22881 4.1208L5.98359 3.93486L5.73838 4.11807L5.8333 3.82002L5.58809 3.63682H5.88867L5.98359 3.33877ZM7.69219 3.33877L7.78711 3.63682H8.0877L7.84512 3.82002L7.9374 4.1208L7.69219 3.93486L7.44961 4.11807L7.54189 3.82002L7.29932 3.63682H7.5999L7.69219 3.33877ZM9.40342 3.33877L9.4957 3.63682H9.79893L9.55371 3.82002L9.64863 4.1208L9.40342 3.93486L9.1582 4.11807L9.25313 3.82002L9.00791 3.63682H9.31113L9.40342 3.33877ZM1.70947 4.09346L1.80176 4.3915H2.10498L1.85977 4.57471L1.95205 4.87275L1.70947 4.68682L1.46426 4.87275L1.55654 4.57197L1.31396 4.38877H1.61455L1.70947 4.09346ZM3.41807 4.09346L3.51299 4.3915H3.81357L3.56836 4.57471L3.66328 4.87275L3.41807 4.68682L3.17285 4.87275L3.26777 4.57197L3.02256 4.38877H3.32578L3.41807 4.09346ZM5.1293 4.09346L5.22158 4.3915H5.52481L5.27959 4.57471L5.37188 4.87275L5.1293 4.68682L4.88408 4.87275L4.97637 4.57197L4.73379 4.38877H5.03438L5.1293 4.09346ZM6.83789 4.09346L6.93281 4.3915H7.2334L6.99082 4.57471L7.08311 4.87275L6.83789 4.68682L6.59531 4.87275L6.6876 4.57197L6.44238 4.38877H6.74824L6.83789 4.09346ZM8.54912 4.09346L8.64141 4.3915H8.94463L8.69941 4.57471L8.7917 4.87275L8.54912 4.68682L8.30391 4.87275L8.39619 4.57197L8.15361 4.38877H8.4542L8.54912 4.09346ZM0.852539 4.84541L0.947461 5.14619H1.24805L1.00547 5.32939L1.09775 5.62471L0.852539 5.4415L0.609961 5.62471L0.702246 5.32666L0.457031 5.14346H0.762891L0.852539 4.84541ZM2.56377 4.84541L2.65605 5.14619H2.95928L2.71406 5.32939L2.80898 5.62471L2.56377 5.4415L2.31855 5.62471L2.41348 5.32666L2.16826 5.14346H2.46885L2.56377 4.84541ZM4.27236 4.84541L4.36729 5.14619H4.66523L4.42266 5.32939L4.51494 5.62471L4.26973 5.4415L4.02715 5.62471L4.11943 5.32666L3.87422 5.14346H4.17744L4.27236 4.84541ZM5.98359 4.84541L6.07588 5.14619H6.3791L6.13389 5.32939L6.22881 5.62471L5.98359 5.4415L5.73838 5.62471L5.8333 5.32666L5.58809 5.14346H5.88867L5.98359 4.84541ZM7.69219 4.84541L7.78711 5.14619H8.0877L7.84512 5.32939L7.9374 5.62471L7.69219 5.4415L7.44961 5.62471L7.54189 5.32666L7.29932 5.14346H7.5999L7.69219 4.84541ZM9.40342 4.84541L9.4957 5.14619H9.79893L9.55371 5.32939L9.64863 5.62471L9.40342 5.4415L9.1582 5.62471L9.25313 5.32666L9.00791 5.14346H9.31113L9.40342 4.84541ZM1.70947 5.6001L1.80176 5.89814H2.10498L1.85977 6.08135L1.95205 6.38213L1.70947 6.19619L1.46426 6.37939L1.55654 6.08135L1.31396 5.89814H1.61455L1.70947 5.6001ZM3.41807 5.6001L3.51299 5.89814H3.81357L3.56836 6.08135L3.66328 6.38213L3.41807 6.19619L3.17285 6.37939L3.26777 6.08135L3.02256 5.89814H3.32578L3.41807 5.6001ZM5.1293 5.6001L5.22158 5.89814H5.52481L5.27959 6.08135L5.37188 6.38213L5.1293 6.19619L4.88408 6.37939L4.97637 6.08135L4.73379 5.89814H5.03438L5.1293 5.6001ZM6.83789 5.6001L6.93281 5.89814H7.2334L6.99082 6.08135L7.08311 6.38213L6.83789 6.19619L6.59531 6.37939L6.6876 6.08135L6.44238 5.89814H6.74824L6.83789 5.6001ZM8.54912 5.6001L8.64141 5.89814H8.94463L8.69941 6.08135L8.7917 6.38213L8.54912 6.19619L8.30391 6.37939L8.39619 6.08135L8.15361 5.89814H8.4542L8.54912 5.6001ZM0.852539 6.35478L0.947461 6.65283H1.24805L1.00547 6.83604L1.09775 7.13408L0.852539 6.95088L0.609961 7.13408L0.702246 6.8333L0.457031 6.6501H0.762891L0.852539 6.35478ZM2.56377 6.35478L2.65605 6.65283H2.95928L2.71406 6.83604L2.80898 7.13408L2.56377 6.95088L2.31855 7.13408L2.41348 6.8333L2.16826 6.6501H2.46885L2.56377 6.35478ZM4.27236 6.35478L4.36729 6.65283H4.66523L4.42793 6.83604L4.52022 7.13408L4.275 6.95088L4.03242 7.13408L4.12471 6.8333L3.87949 6.6501H4.18271L4.27236 6.35478ZM5.98359 6.35478L6.07588 6.65283H6.3791L6.13389 6.83604L6.22881 7.13408L5.98359 6.95088L5.73838 7.13408L5.8333 6.8333L5.58809 6.6501H5.88867L5.98359 6.35478ZM7.69219 6.35478L7.78711 6.65283H8.0877L7.84512 6.83604L7.9374 7.13408L7.69219 6.95088L7.44961 7.13408L7.54189 6.8333L7.29932 6.6501H7.5999L7.69219 6.35478ZM9.40342 6.35478L9.4957 6.65283H9.79893L9.55371 6.83604L9.64863 7.13408L9.40342 6.95088L9.1582 7.13408L9.25313 6.8333L9.00791 6.6501H9.31113L9.40342 6.35478Z" fill="white"/>
</g>
<defs>
<clipPath id="clip0_201_658">
<rect width="18" height="14" fill="white"/>
</clipPath>
</defs>
</svg>
