<svg width="28" height="28" viewBox="0 0 28 28" fill="none" xmlns="http://www.w3.org/2000/svg">
<path fill-rule="evenodd" clip-rule="evenodd" d="M9.65602 9.33298C9.65602 7.20173 11.3837 5.47401 13.515 5.47401C15.6462 5.47401 17.374 7.20173 17.374 9.33298C17.374 11.4642 15.6462 13.192 13.515 13.192C11.3837 13.192 9.65602 11.4642 9.65602 9.33298ZM13.515 3.85862C10.4916 3.85862 8.04063 6.30958 8.04063 9.33298C8.04063 12.3564 10.4916 14.8073 13.515 14.8073C16.5384 14.8073 18.9893 12.3564 18.9893 9.33298C18.9893 6.30958 16.5384 3.85862 13.515 3.85862ZM8.45293 19.317C9.17663 18.5933 10.1582 18.1867 11.1816 18.1867H15.8483C16.8718 18.1867 17.8533 18.5933 18.577 19.317C19.3007 20.0407 19.7073 21.0223 19.7073 22.0457V24.3791C19.7073 24.8251 20.0689 25.1867 20.515 25.1867C20.961 25.1867 21.3227 24.8251 21.3227 24.3791V22.0457C21.3227 20.5938 20.7459 19.2014 19.7193 18.1748C18.6926 17.1481 17.3002 16.5714 15.8483 16.5714H11.1816C9.72974 16.5714 8.33732 17.1481 7.31068 18.1748C6.28404 19.2014 5.70728 20.5938 5.70728 22.0457V24.3791C5.70728 24.8251 6.06889 25.1867 6.51497 25.1867C6.96104 25.1867 7.32266 24.8251 7.32266 24.3791V22.0457C7.32266 21.0223 7.72923 20.0407 8.45293 19.317Z" fill="#282828"/>
</svg>
